<svg width="600" height="400" xmlns="http://www.w3.org/2000/svg">
  <!-- 背景 -->
  <rect width="100%" height="100%" fill="#fff4e6"/>
  
  <!-- 海洋 -->
  <rect x="0" y="250" width="600" height="150" fill="#4169e1"/>
  
  <!-- 沙滩 -->
  <path d="M0,250 Q300,200 600,250 L600,280 Q300,230 0,280 Z" fill="#f4d03f"/>
  
  <!-- 棕榈树 -->
  <rect x="100" y="150" width="20" height="100" fill="#8b4513" transform="rotate(-15,110,200)"/>
  <path d="M90,150 Q110,120 130,150" stroke="#228b22" stroke-width="10" fill="none"/>
  <path d="M80,130 Q110,100 140,130" stroke="#228b22" stroke-width="10" fill="none"/>
  <path d="M70,110 Q110,80 150,110" stroke="#228b22" stroke-width="10" fill="none"/>
  
  <!-- 太阳 -->
  <circle cx="500" cy="80" r="40" fill="#ffd700"/>
  
  <!-- 小船 -->
  <path d="M400,280 L450,280 L425,300 Z" fill="#8b4513"/>
  <rect x="420" y="260" width="2" height="30" fill="#8b4513"/>
  <path d="M422,260 L422,240 L432,250 Z" fill="#cd853f"/>
  
  <!-- 贝壳 -->
  <circle cx="150" cy="270" r="10" fill="#ffd700"/>
  <circle cx="200" cy="260" r="8" fill="#ffd700"/>
  <circle cx="250" cy="270" r="12" fill="#ffd700"/>
</svg> 